# xmcd CD database file
#
# Track frame offsets:
#	150
#	24346
#	47913
#	73293
#	86080
#	109064
#	134605
#	158637
#	183841
#	209201
#
# Disc length: 2849 seconds
#
# Revision: 0
# Processed by: cddbd v1.5.1PL0 Copyright (c) Steve Scherf et al.
# Submitted via: CDex 1.51
#
DISCID=920b1f0a
DTITLE=mixed up  - birth departure
DYEAR=2004
DGENRE=
TTITLE0=revive
TTITLE1=rise
TTITLE2=will
TTITLE3=cybercity
TTITLE4=ancient blue
TTITLE5=Dear
TTITLE6=revive-off vo-
TTITLE7=will-off vo-
TTITLE8=Dear
TTITLE9=ボーナストラック
EXTD=YEAR: 2004
EXTT0=
EXTT1=
EXTT2=
EXTT3=
EXTT4=
EXTT5=
EXTT6=
EXTT7=
EXTT8=
EXTT9=
PLAYORDER=
